<svg id="Layer_1" data-name="Layer 1" xmlns="http://www.w3.org/2000/svg" viewBox="0 0 89.46 97.44"><defs><style>.cls-1{fill:none;stroke:#ef4442;stroke-miterlimit:10;stroke-width:1.77px;}.cls-2{fill:#010101;}</style></defs><rect class="cls-1" x="21.89" y="26.69" width="59.64" height="59.64" rx="1.72" transform="translate(49.72 -21.42) rotate(45)"/><circle class="cls-2" cx="47.15" cy="0.93" r="0.93"/><path class="cls-2" d="M63.54,13.34A.94.94,0,0,1,62.21,12a1,1,0,0,1,1.33,0A.94.94,0,0,1,63.54,13.34Z" transform="translate(-5.38 -1.41)"/><path class="cls-2" d="M73.88,23.69a.94.94,0,0,1-1.32,0,.93.93,0,0,1,1.32-1.32A.94.94,0,0,1,73.88,23.69Z" transform="translate(-5.38 -1.41)"/><path class="cls-2" d="M84.22,34a.92.92,0,0,1-1.32,0,.93.93,0,0,1,1.32-1.32A.92.92,0,0,1,84.22,34Z" transform="translate(-5.38 -1.41)"/><circle class="cls-2" cx="88.53" cy="42.31" r="0.93"/><path class="cls-2" d="M44,12.24a.93.93,0,0,1-1.32-1.32A.93.93,0,1,1,44,12.24Z" transform="translate(-5.38 -1.41)"/><circle class="cls-2" cx="48.25" cy="20.52" r="0.93"/><circle class="cls-2" cx="58.6" cy="30.87" r="0.93"/><circle class="cls-2" cx="68.94" cy="41.21" r="0.93"/><circle class="cls-2" cx="79.29" cy="51.55" r="0.93"/><path class="cls-2" d="M34.7,21.49a.93.93,0,0,1-1.32-1.32.93.93,0,1,1,1.32,1.32Z" transform="translate(-5.38 -1.41)"/><circle class="cls-2" cx="39.01" cy="29.77" r="0.93"/><circle class="cls-2" cx="49.35" cy="40.11" r="0.93"/><circle class="cls-2" cx="59.7" cy="50.45" r="0.93"/><path class="cls-2" d="M76.08,62.87a.94.94,0,0,1-1.32,0,1,1,0,0,1,0-1.33.94.94,0,0,1,1.32,0A1,1,0,0,1,76.08,62.87Z" transform="translate(-5.38 -1.41)"/><path class="cls-2" d="M25.46,30.73a.93.93,0,0,1-1.32-1.32.93.93,0,0,1,1.32,1.32Z" transform="translate(-5.38 -1.41)"/><path class="cls-2" d="M35.8,41.08a.93.93,0,0,1-1.32-1.32.93.93,0,0,1,1.32,1.32Z" transform="translate(-5.38 -1.41)"/><circle class="cls-2" cx="40.11" cy="49.35" r="0.93"/><path class="cls-2" d="M56.49,61.76a.92.92,0,0,1-1.32,0,.93.93,0,1,1,1.32-1.32A.92.92,0,0,1,56.49,61.76Z" transform="translate(-5.38 -1.41)"/><path class="cls-2" d="M66.84,72.11a.94.94,0,0,1-1.32,0,.93.93,0,0,1,1.32-1.32A.94.94,0,0,1,66.84,72.11Z" transform="translate(-5.38 -1.41)"/><path class="cls-2" d="M16.22,40a.94.94,0,0,1-1.32,0,.93.93,0,1,1,1.32-1.32A.94.94,0,0,1,16.22,40Z" transform="translate(-5.38 -1.41)"/><circle class="cls-2" cx="20.52" cy="48.25" r="0.93"/><circle class="cls-2" cx="30.87" cy="58.6" r="0.93"/><circle class="cls-2" cx="41.21" cy="68.94" r="0.93"/><path class="cls-2" d="M57.59,81.35a.92.92,0,0,1-1.32,0A.93.93,0,0,1,57.59,80,.92.92,0,0,1,57.59,81.35Z" transform="translate(-5.38 -1.41)"/><path class="cls-2" d="M7,49.22A.93.93,0,1,1,5.65,47.9.93.93,0,0,1,7,49.22Z" transform="translate(-5.38 -1.41)"/><circle class="cls-2" cx="11.28" cy="57.5" r="0.93"/><circle class="cls-2" cx="21.62" cy="67.84" r="0.93"/><circle class="cls-2" cx="31.97" cy="78.19" r="0.93"/><path class="cls-2" d="M48.35,90.6a.94.94,0,0,1-1.32,0,.93.93,0,1,1,1.32-1.32A.94.94,0,0,1,48.35,90.6Z" transform="translate(-5.38 -1.41)"/></svg>