<svg id="Layer_1" data-name="Layer 1" xmlns="http://www.w3.org/2000/svg" viewBox="0 0 126.33 141.21"><defs><style>.cls-1,.cls-2{fill:none;stroke-linecap:round;stroke-linejoin:round;stroke-width:2px;}.cls-1{stroke:#c7c7c6;}.cls-2{stroke:#487bbe;}.cls-3{fill:#487bbe;}.cls-4{fill:#c7c7c6;}</style></defs><line class="cls-1" x1="1" y1="1" x2="97.24" y2="97.24"/><line class="cls-2" x1="28.15" y1="43.96" x2="124.4" y2="140.21"/><path class="cls-3" d="M70.3,64.4A1.69,1.69,0,1,1,70.16,62,1.69,1.69,0,0,1,70.3,64.4Z" transform="translate(14.33 -5.15)"/><path class="cls-4" d="M77.65,70.93a1.68,1.68,0,1,1-.14-2.37A1.68,1.68,0,0,1,77.65,70.93Z" transform="translate(14.33 -5.15)"/><path class="cls-3" d="M92.35,84a1.69,1.69,0,1,1-.14-2.38A1.69,1.69,0,0,1,92.35,84Z" transform="translate(14.33 -5.15)"/><path class="cls-4" d="M99.7,90.55a1.68,1.68,0,1,1-2.51-2.24,1.68,1.68,0,1,1,2.51,2.24Z" transform="translate(14.33 -5.15)"/><path class="cls-3" d="M83.58,64.26a1.68,1.68,0,1,1-.14-2.38A1.68,1.68,0,0,1,83.58,64.26Z" transform="translate(14.33 -5.15)"/><path class="cls-3" d="M90.93,70.8a1.68,1.68,0,1,1-.14-2.38A1.69,1.69,0,0,1,90.93,70.8Z" transform="translate(14.33 -5.15)"/><path class="cls-4" d="M98.28,77.33A1.68,1.68,0,1,1,98.15,75,1.67,1.67,0,0,1,98.28,77.33Z" transform="translate(14.33 -5.15)"/><path class="cls-4" d="M89.52,57.59a1.69,1.69,0,1,1-.14-2.38A1.69,1.69,0,0,1,89.52,57.59Z" transform="translate(14.33 -5.15)"/><path class="cls-3" d="M96.87,64.12a1.68,1.68,0,1,1-.14-2.37A1.68,1.68,0,0,1,96.87,64.12Z" transform="translate(14.33 -5.15)"/><path class="cls-3" d="M104.22,70.66a1.68,1.68,0,1,1-.14-2.37A1.68,1.68,0,0,1,104.22,70.66Z" transform="translate(14.33 -5.15)"/><path class="cls-3" d="M111.57,77.2a1.68,1.68,0,1,1-.14-2.38A1.68,1.68,0,0,1,111.57,77.2Z" transform="translate(14.33 -5.15)"/><path class="cls-4" d="M88.1,44.37A1.68,1.68,0,1,1,88,42,1.67,1.67,0,0,1,88.1,44.37Z" transform="translate(14.33 -5.15)"/><path class="cls-3" d="M102.81,57.45a1.69,1.69,0,1,1-.14-2.38A1.69,1.69,0,0,1,102.81,57.45Z" transform="translate(14.33 -5.15)"/><path class="cls-4" d="M110.16,64a1.69,1.69,0,1,1-.14-2.38A1.7,1.7,0,0,1,110.16,64Z" transform="translate(14.33 -5.15)"/></svg>