<svg id="Layer_1" data-name="Layer 1" xmlns="http://www.w3.org/2000/svg" viewBox="0 0 169.29 230.81"><defs><style>.cls-1,.cls-3{fill:none;stroke:#1a73e8;stroke-width:2px;}.cls-1{stroke-linecap:round;stroke-linejoin:round;}.cls-2{fill:#201f1f;}.cls-3{stroke-miterlimit:10;}</style></defs><line class="cls-1" x1="1" y1="62.52" x2="168.29" y2="229.81"/><path class="cls-2" d="M104.83,98.15a15.24,15.24,0,1,1,15.23-15.24A15.26,15.26,0,0,1,104.83,98.15Zm0-23.3a8.07,8.07,0,1,0,8.06,8.06A8.08,8.08,0,0,0,104.83,74.85Z" transform="translate(-68.42 -50.1)"/><path class="cls-3" d="M88.25,81.57a15.24,15.24,0,1,1,15.23-15.23A15.25,15.25,0,0,1,88.25,81.57Zm0-23.3a8.07,8.07,0,1,0,8.06,8.07A8.08,8.08,0,0,0,88.25,58.27Z" transform="translate(-68.42 -50.1)"/></svg>