<svg id="Layer_1" data-name="Layer 1" xmlns="http://www.w3.org/2000/svg" viewBox="0 0 178.24 187.46"><defs><style>.cls-1,.cls-2{fill:none;stroke-linecap:round;stroke-linejoin:round;stroke-width:1.15px;}.cls-1{stroke:#010101;}.cls-2{stroke:#1a73e8;}</style></defs><line class="cls-1" x1="47.72" y1="150.68" x2="55.01" y2="157.98"/><line class="cls-1" x1="22.67" y1="125.64" x2="36.09" y2="139.05"/><line class="cls-1" x1="45.4" y1="127.26" x2="95.9" y2="177.76"/><line class="cls-1" x1="19.65" y1="101.5" x2="29.89" y2="111.75"/><line class="cls-2" x1="81.7" y1="142.44" x2="126.13" y2="186.88"/><line class="cls-2" x1="14.65" y1="75.4" x2="62.03" y2="122.78"/><line class="cls-1" x1="51.8" y1="91.44" x2="130.23" y2="169.87"/><line class="cls-1" x1="19.36" y1="59.01" x2="35.97" y2="75.61"/><line class="cls-1" x1="116.55" y1="135.09" x2="135.4" y2="153.94"/><line class="cls-1" x1="0.58" y1="19.11" x2="96.73" y2="115.26"/><line class="cls-2" x1="77.7" y1="75.13" x2="171.63" y2="169.06"/><line class="cls-2" x1="36.21" y1="33.64" x2="58.03" y2="55.46"/><line class="cls-1" x1="95.93" y1="72.25" x2="156.61" y2="132.93"/><line class="cls-1" x1="33.98" y1="10.31" x2="78.82" y2="55.14"/><line class="cls-2" x1="145.97" y1="101.19" x2="177.67" y2="132.89"/><line class="cls-2" x1="61.38" y1="16.6" x2="122.95" y2="78.17"/><line class="cls-1" x1="115.27" y1="49.39" x2="158.09" y2="92.2"/><line class="cls-1" x1="66.46" y1="0.58" x2="98.49" y2="32.6"/><line class="cls-2" x1="153.33" y1="66.34" x2="169.98" y2="82.99"/><line class="cls-2" x1="92.08" y1="5.09" x2="134.3" y2="47.31"/><line class="cls-1" x1="144.67" y1="36.58" x2="154.9" y2="46.81"/><line class="cls-1" x1="126.7" y1="18.6" x2="133.76" y2="25.66"/></svg>