<svg id="Layer_1" data-name="Layer 1" xmlns="http://www.w3.org/2000/svg" viewBox="0 0 161.92 176.22"><defs><style>.cls-1{fill:none;stroke:#1a73e8;stroke-miterlimit:10;stroke-width:1.77px;}.cls-2{fill:#939393;}</style></defs><rect class="cls-1" x="46.29" y="48.34" width="107.94" height="107.94" rx="1.72" transform="translate(85.31 -43.52) rotate(45)"/><circle class="cls-2" cx="85.34" cy="1.69" r="1.69"/><path class="cls-2" d="M121.66,24.2a1.69,1.69,0,1,1,0-2.39A1.69,1.69,0,0,1,121.66,24.2Z" transform="translate(-16.4 -2.59)"/><path class="cls-2" d="M140.38,42.92a1.69,1.69,0,1,1,0-2.39A1.69,1.69,0,0,1,140.38,42.92Z" transform="translate(-16.4 -2.59)"/><path class="cls-2" d="M159.11,61.64a1.69,1.69,0,1,1,0-2.39A1.69,1.69,0,0,1,159.11,61.64Z" transform="translate(-16.4 -2.59)"/><circle class="cls-2" cx="160.23" cy="76.58" r="1.69"/><path class="cls-2" d="M86.21,22.21a1.69,1.69,0,1,1,0-2.39A1.69,1.69,0,0,1,86.21,22.21Z" transform="translate(-16.4 -2.59)"/><circle class="cls-2" cx="87.33" cy="37.14" r="1.69"/><circle class="cls-2" cx="106.05" cy="55.86" r="1.69"/><circle class="cls-2" cx="124.78" cy="74.59" r="1.69"/><circle class="cls-2" cx="143.5" cy="93.31" r="1.69"/><path class="cls-2" d="M69.48,38.94a1.69,1.69,0,1,1,0-2.39A1.69,1.69,0,0,1,69.48,38.94Z" transform="translate(-16.4 -2.59)"/><circle class="cls-2" cx="70.6" cy="53.87" r="1.69"/><circle class="cls-2" cx="89.32" cy="72.59" r="1.69"/><circle class="cls-2" cx="108.05" cy="91.32" r="1.69"/><path class="cls-2" d="M144.37,113.83a1.69,1.69,0,1,1,0-2.39A1.69,1.69,0,0,1,144.37,113.83Z" transform="translate(-16.4 -2.59)"/><path class="cls-2" d="M52.75,55.67a1.69,1.69,0,1,1,0-2.39A1.69,1.69,0,0,1,52.75,55.67Z" transform="translate(-16.4 -2.59)"/><path class="cls-2" d="M71.47,74.39a1.69,1.69,0,1,1,0-2.39A1.69,1.69,0,0,1,71.47,74.39Z" transform="translate(-16.4 -2.59)"/><circle class="cls-2" cx="72.59" cy="89.32" r="1.69"/><path class="cls-2" d="M108.91,111.83a1.69,1.69,0,1,1,0-2.39A1.69,1.69,0,0,1,108.91,111.83Z" transform="translate(-16.4 -2.59)"/><path class="cls-2" d="M127.64,130.56a1.69,1.69,0,1,1,0-2.39A1.69,1.69,0,0,1,127.64,130.56Z" transform="translate(-16.4 -2.59)"/><path class="cls-2" d="M36,72.4A1.69,1.69,0,1,1,36,70,1.69,1.69,0,0,1,36,72.4Z" transform="translate(-16.4 -2.59)"/><circle class="cls-2" cx="37.14" cy="87.33" r="1.69"/><circle class="cls-2" cx="55.86" cy="106.05" r="1.69"/><circle class="cls-2" cx="74.59" cy="124.78" r="1.69"/><path class="cls-2" d="M110.91,147.29a1.69,1.69,0,1,1,0-2.39A1.69,1.69,0,0,1,110.91,147.29Z" transform="translate(-16.4 -2.59)"/><path class="cls-2" d="M19.29,89.13a1.69,1.69,0,1,1,0-2.39A1.69,1.69,0,0,1,19.29,89.13Z" transform="translate(-16.4 -2.59)"/><circle class="cls-2" cx="20.41" cy="104.06" r="1.69"/><circle class="cls-2" cx="39.13" cy="122.78" r="1.69"/><circle class="cls-2" cx="57.86" cy="141.51" r="1.69"/><path class="cls-2" d="M94.18,164a1.69,1.69,0,1,1,0-2.39A1.69,1.69,0,0,1,94.18,164Z" transform="translate(-16.4 -2.59)"/></svg>